<svg xmlns="http://www.w3.org/2000/svg" viewBox="0 0 330 124" role="img" aria-labelledby="rockysLogoTitle">
  <title id="rockysLogoTitle">Rockys Diner</title>
  <defs>
    <linearGradient id="rockysChrome" x1="38" x2="292" y1="17" y2="106" gradientUnits="userSpaceOnUse">
      <stop stop-color="#fff4d7" />
      <stop offset="0.34" stop-color="#d7d9d8" />
      <stop offset="0.63" stop-color="#ffffff" />
      <stop offset="1" stop-color="#9fa6a7" />
    </linearGradient>
    <filter id="rockysShadow" x="-20%" y="-20%" width="140%" height="140%">
      <feDropShadow dx="0" dy="8" stdDeviation="5" flood-color="#171724" flood-opacity="0.28" />
    </filter>
  </defs>

  <path
    d="M29 32C52 13 88 8 134 17c23 4 42 4 58 0 43-11 76-4 99 20 15 16 19 34 13 54-54-8-101-6-141 7-47 15-90 12-128-9C21 61 19 42 29 32Z"
    fill="url(#rockysChrome)"
    filter="url(#rockysShadow)"
  />
  <path
    d="M42 37c19-12 48-16 88-8 27 5 50 5 69 0 33-8 58-3 76 15 9 9 12 19 10 31-46-5-87-2-123 10-43 14-80 10-111-10-16-11-20-27-9-38Z"
    fill="#fff2c8"
    stroke="#172245"
    stroke-width="4"
  />
  <path d="M54 87c40 20 78 22 116 7 30-12 67-16 109-10" fill="none" stroke="#b51e2b" stroke-width="7" stroke-linecap="round" />

  <g transform="translate(238 51)">
    <rect width="40" height="24" fill="#172245" />
    <rect x="10" width="10" height="12" fill="#fff2c8" />
    <rect x="30" width="10" height="12" fill="#fff2c8" />
    <rect y="12" width="10" height="12" fill="#fff2c8" />
    <rect x="20" y="12" width="10" height="12" fill="#fff2c8" />
  </g>

  <text
    x="52"
    y="67"
    fill="#b51e2b"
    font-family="Georgia, 'Times New Roman', serif"
    font-size="48"
    font-style="italic"
    font-weight="700"
    letter-spacing="-2"
  >Rockys</text>
  <text
    x="105"
    y="98"
    fill="#172245"
    font-family="'Arial Narrow', 'Barlow Condensed', Arial, sans-serif"
    font-size="28"
    font-weight="800"
    letter-spacing="6"
  >DINER</text>
  <path d="M91 103h145" stroke="#b51e2b" stroke-width="3" stroke-linecap="round" />
</svg>
